<svg width="75" height="83" viewBox="0 0 75 83" fill="none" xmlns="http://www.w3.org/2000/svg">
  <path d="M33.5324 1.87346C35.976 0.4914 38.9653 0.491399 41.409 1.87346L70.7132 18.447C73.2231 19.8665 74.7749 22.5269 74.7749 25.4104V58.2739C74.7749 61.1574 73.2231 63.8178 70.7132 65.2374L41.409 81.8109C38.9653 83.1929 35.976 83.1929 33.5324 81.8109L4.22818 65.2374C1.71827 63.8178 0.166489 61.1574 0.166489 58.2739V25.4104C0.166489 22.5269 1.71827 19.8665 4.22818 18.447L33.5324 1.87346Z" fill="url(#paint0_linear_1476_519)" fill-opacity="0.8"/>
  <path d="M37.5 25C35.8 25 34.2 26.4 34.2 28C34.2 29.6 35.8 31 37.5 31C39.2 31 40.8 29.6 40.8 28C40.8 26.4 39.2 25 37.5 25ZM37.5 33C35.8 33 34.2 34.4 34.2 36C34.2 37.6 35.8 39 37.5 39C39.2 39 40.8 37.6 40.8 36C40.8 34.4 39.2 33 37.5 33ZM28.8 51.6C28.6 51.6 28.4 51.7 28.2 51.8L19.4 59.6C18.7 60.1 18.2 61.1 18.2 62.2V62.7C18.2 63.5 18.4 64.3 18.8 65C19.3 65.7 20.1 66.1 21 66.1C21.8 66.1 22.6 65.7 23.1 65L28.2 60.8L33.3 65.7L37.8 61.2L28.8 51.6ZM30.8 63.6L22.3 56.1L27.2 51.2L32.5 55.6L37.8 51.2L30.8 63.6Z" fill="white"/>
  <defs>
    <linearGradient id="paint0_linear_1476_519" x1="59.3901" y1="70.0085" x2="13.9864" y2="16.4214" gradientUnits="userSpaceOnUse">
      <stop stop-color="#00B7EC"/>
      <stop offset="1" stop-color="#00B7EC" stop-opacity="0.33"/>
    </linearGradient>
  </defs>
</svg>

